<svg width="240" height="60" xmlns="http://www.w3.org/2000/svg" class="fl-svgdocument">
 <g>
  <title>background</title>
  <rect x="-1" y="-1" width="242" height="62" id="canvas_background" fill="none"/>
 </g>

 <g>
  <title>Layer 1</title>
  <g id="_2pGrrHDisTubxdFeOQ9h1" transform="matrix(0.30110928608811127,0,0,0.32691426813244273,87.25367808739182,51.02516584756849) ">
   <path id="_fclVC_gW3knTSnF4jsxLl" d="m-140.919748,-113.444831l-9.511237,-9.184936c-1.570663,-1.516778 -4.074368,-1.473082 -5.591146,0.097581l-56.206428,58.203195c-1.516778,1.570663 -1.473082,4.074368 0.097581,5.591146l57.355938,55.388237c1.570663,1.516778 4.074368,1.473082 5.591146,-0.097581l56.206428,-58.203195c1.516778,-1.570663 1.473082,-4.074368 -0.097581,-5.591146l-21.738763,-20.992975l14.440655,-14.953668l27.365565,26.426739c6.721762,6.491159 6.908716,17.203143 0.417556,23.924904l-67.073955,69.456798c-6.491159,6.721762 -17.203143,6.908716 -23.924904,0.417556l-68.609541,-66.255765c-6.721762,-6.491159 -6.908716,-17.203143 -0.417556,-23.924904l67.073955,-69.456798c6.491159,-6.721762 17.203143,-6.908716 23.924904,-0.417556l15.138038,14.6187l-14.440655,14.953668z" fill="#419a1c"/>
   <path id="_2yC6JlP49xF4W450B5ghS" d="m-99.879683,-13.861401l9.511237,9.184936c1.570663,1.516778 4.074368,1.473082 5.591146,-0.097581l56.205069,-58.201788c1.516778,-1.570663 1.473082,-4.074368 -0.097581,-5.591146l-57.355938,-55.388237c-1.570663,-1.516778 -4.074368,-1.473082 -5.591146,0.097581l-56.205069,58.201788c-1.516778,1.570663 -1.473082,4.074368 0.097581,5.591146l21.738763,20.992975l-14.440655,14.953668l-27.365565,-26.426739c-6.721762,-6.491159 -6.908716,-17.203143 -0.417556,-23.924904l67.072596,-69.455391c6.491159,-6.721762 17.203143,-6.908716 23.924904,-0.417556l68.609541,66.255765c6.721762,6.491159 6.908716,17.203143 0.417556,23.924904l-67.073955,69.456798c-6.491159,6.721762 -17.203143,6.908716 -23.924904,0.417556l-15.138038,-14.6187l14.442014,-14.955076l0,0.000001z" fill="#f2e416"/>
  </g>
  <path stroke="null" id="_kCfronMV8leRKdbxpuZJG" fill="#419a1c" d="m134.416288,45.320444l-33.495399,0l0,-31.803499l33.060589,0l0,3.30151l-25.698799,0c0,3.489182 0,6.978363 0,10.467545l22.692609,0l0,3.30151l-22.692609,0l0,11.435928l26.133608,0l0,3.297007l0.000001,0zm18.156552,0l-6.882,0l0,-23.313258l6.882,0l0,3.30151q1.319425,-2.157468 7.136889,-3.12585l0,0q3.043673,-0.52698 6.334738,-0.50446l0,0l-0.217405,3.540229q-4.977831,0 -9.116026,1.189085q-4.138197,1.184579 -4.138197,2.594365l0,0l0,16.31838l0.000001,-0.000001zm29.799158,0l-6.882001,0l0,-23.313258l6.882001,0l0,23.313258zm0,-27.511086l-6.882001,0l0,-4.292414l6.882001,0l0,4.292414zm28.586217,27.993025l0,0q-11.897314,0 -14.896007,-4.96803l0,0q-0.877117,-1.409785 -0.877117,-3.08081l0,0l0,-8.882099q0,-3.324031 4.205667,-5.314846q4.213163,-1.986311 11.387536,-1.986311l0,0q9.146012,0 12.587012,2.373665l0,0q2.713818,1.846684 2.713818,5.454473l0,0l-6.552144,0.373841q0,-3.12585 -1.851693,-4.08072q-1.844196,-0.954871 -6.567137,-0.954871q-4.722941,0 -6.882001,0.9864q-2.159059,0.990903 -2.159059,3.256468l0,0l0,9.125321q0,2.42321 2.264014,3.477171q2.271509,1.053961 7.009444,1.053961q4.745433,0 6.334739,-0.747682q1.596804,-0.747682 1.956648,-3.387088l0,0l6.372223,0q-0.584746,4.049193 -3.883307,5.675175q-3.291065,1.625982 -11.162633,1.625982l-0.000001,0z"/>
 </g>
</svg>